<?xml version="1.0" encoding="UTF-8"?><svg id="Layer_1" xmlns="http://www.w3.org/2000/svg" viewBox="0 0 504 171"><defs><style>.cls-1{fill:#fff;stroke-width:0px;}</style></defs><path class="cls-1" d="M100.46,27.5c31.36,0,56.87,25.51,56.87,56.87s-25.51,56.87-56.87,56.87-56.87-25.51-56.87-56.87,25.51-56.87,56.87-56.87M100.46,9.11c-41.57,0-75.27,33.7-75.27,75.27s33.7,75.27,75.27,75.27,75.27-33.7,75.27-75.27S142.03,9.11,100.46,9.11h0Z"/><path class="cls-1" d="M106.56,54.13c-4.23-6.26-4.32-6.26-5.75-6.26s-1.52,0-5.75,6.26c-1.56,2.31-4.68,7-7.97,12.49-7.74,12.91-11.66,22.04-11.66,27.16,0,12.49,11.39,22.66,25.38,22.66s25.38-10.17,25.38-22.66c0-5.11-3.92-14.25-11.66-27.16-3.29-5.49-6.41-10.18-7.97-12.49Z"/><path class="cls-1" d="M222.77,51.52h17.44v6.74c3.2-3.36,6.04-5.66,8.52-6.9,2.53-1.29,5.53-1.94,8.99-1.94,4.6,0,9.4,1.5,14.41,4.49l-7.98,15.96c-3.31-2.38-6.54-3.56-9.69-3.56-9.51,0-14.26,7.18-14.26,21.54v39.13h-17.44V51.52ZM381.4,62.17l-9.91,2.13h0s0,58.44,0,58.44v5.28h19.81V60.04l-9.91,2.13ZM381.4,41.71l-9.91,2.13v11.93h0s9.91-2.13,9.91-2.13l9.91-2.13v-11.93l-9.91,2.13ZM409.31,55.78l17.51-4.26v6.97c6.1-6.04,12.97-9.07,20.61-9.07,8.78,0,15.63,2.76,20.54,8.29,4.24,4.7,6.35,12.37,6.35,23.02v46.26h-17.51v-42.1c0-7.43-1.03-12.56-3.1-15.4-2.01-2.89-5.68-4.33-11-4.33-5.79,0-9.9,1.91-12.32,5.73-2.38,3.77-3.57,10.35-3.57,19.74v36.38h-17.51V55.78ZM351.68,51.89h-17.73v8.38c-8.34-7.23-14.7-10.85-23.48-10.85-10.18,0-18.57,3.77-25.34,11.31-6.77,7.54-10.11,16.97-10.11,28.29s3.4,21.13,10.17,28.83c6.82,7.54,15.3,11.32,25.74,11.32,8.27,0,14.69-3.36,23.03-10.08v8.93h17.73V51.89ZM327.24,106.92c-3.98,4.44-9.2,6.66-15.65,6.66-6.04,0-11.06-2.3-15.04-6.9-3.87-4.55-5.81-10.43-5.81-17.67,0-6.77,1.99-12.45,5.97-17.05,4.03-4.55,9.04-6.82,15.03-6.82,6.35,0,11.52,2.25,15.5,6.74,3.98,4.6,5.97,10.44,5.97,17.51s-1.99,12.92-5.97,17.51Z"/></svg>