<svg width="28" height="28" viewBox="0 0 28 28" fill="none" xmlns="http://www.w3.org/2000/svg">
<path fill-rule="evenodd" clip-rule="evenodd" d="M16.3741 3.27695C16.8045 2.96716 17.4115 2.8223 18.0085 3.04072C19.2886 3.50909 20.4629 4.19482 21.4869 5.05252C21.9735 5.46012 22.1515 6.05736 22.0987 6.58458C22.0107 7.4629 22.1656 8.31094 22.5876 9.0419C22.9629 9.69194 23.5241 10.2054 24.2096 10.5664L24.4724 10.6946C24.9563 10.9127 25.3855 11.3667 25.4943 11.9937C25.6074 12.6463 25.6663 13.3168 25.6663 14.0001C25.6663 14.6834 25.6074 15.354 25.4943 16.0067C25.3964 16.5709 25.0389 16.9951 24.6156 17.2333L24.4724 17.3058C23.6673 17.6687 23.0098 18.2272 22.5876 18.9585C22.1656 19.6894 22.0107 20.5373 22.0987 21.4156C22.1514 21.9428 21.9735 22.54 21.4869 22.9476C20.4629 23.8053 19.2886 24.491 18.0086 24.9593C17.4116 25.1778 16.8046 25.0329 16.3742 24.7231C15.657 24.2069 14.8445 23.9167 13.9997 23.9167C13.1549 23.9167 12.3423 24.2069 11.6252 24.7231C11.1948 25.0329 10.5878 25.1778 9.99075 24.9593C8.71065 24.491 7.53637 23.8053 6.51236 22.9475C6.02578 22.54 5.84781 21.9428 5.9006 21.4156C5.98855 20.5373 5.83353 19.6894 5.41154 18.9585C5.03624 18.3084 4.47519 17.7949 3.78969 17.4339L3.52692 17.3058C3.04304 17.0876 2.61388 16.6336 2.50511 16.0067C2.39189 15.354 2.33301 14.6834 2.33301 14.0001C2.33301 13.3167 2.39189 12.6462 2.5051 11.9935C2.60299 11.4292 2.9604 11.0051 3.38365 10.7669L3.5269 10.6944C4.33202 10.3315 4.98933 9.77304 5.41154 9.04175C5.83354 8.31082 5.98856 7.46283 5.9006 6.58457C5.8478 6.05737 6.02576 5.46018 6.51236 5.0526C7.53639 4.19486 8.71071 3.5091 9.99086 3.04072C10.5879 2.82229 11.1949 2.96716 11.6253 3.27695C12.3423 3.79311 13.1549 4.08337 13.9997 4.08337C14.8445 4.08337 15.657 3.79311 16.3741 3.27695ZM17.49 5.34091C16.4801 6.00501 15.2892 6.41671 13.9997 6.41671C12.7102 6.41671 11.5192 6.00501 10.5094 5.34091C9.69149 5.67094 8.93053 6.11383 8.24591 6.65066C8.31559 7.85634 8.0765 9.0926 7.43226 10.2084C6.78787 11.3246 5.83645 12.1499 4.75708 12.6924C4.69732 13.1192 4.66634 13.5557 4.66634 14.0001C4.66634 14.4445 4.69732 14.881 4.75708 15.3078C5.83645 15.8503 6.78787 16.6756 7.43226 17.7918C8.07648 18.9076 8.31559 20.1438 8.24591 21.3494C8.93051 21.8863 9.69143 22.3292 10.5093 22.6592C11.5191 21.9951 12.7102 21.5833 13.9997 21.5833C15.2892 21.5833 16.4802 21.9951 17.4901 22.6592C18.3078 22.3292 19.0687 21.8863 19.7533 21.3495C19.6837 20.1439 19.9227 18.9076 20.567 17.7918C21.2114 16.6755 22.1628 15.8502 23.2422 15.3077C23.3021 14.881 23.333 14.4445 23.333 14.0001C23.333 13.5557 23.3021 13.1193 23.2422 12.6926C22.1628 12.1501 21.2114 11.3248 20.567 10.2086C19.9227 9.09267 19.6836 7.85634 19.7533 6.65059C19.0687 6.11379 18.3078 5.67093 17.49 5.34091ZM13.9997 9.33334C16.577 9.33334 18.6663 11.4227 18.6663 14C18.6663 16.5773 16.577 18.6667 13.9997 18.6667C11.4223 18.6667 9.33301 16.5773 9.33301 14C9.33301 11.4227 11.4223 9.33334 13.9997 9.33334ZM13.9997 11.6667C12.711 11.6667 11.6663 12.7113 11.6663 14C11.6663 15.2887 12.711 16.3333 13.9997 16.3333C15.2884 16.3333 16.333 15.2887 16.333 14C16.333 12.7113 15.2884 11.6667 13.9997 11.6667Z" fill="#8491A5"/>
</svg>
